<svg xmlns="http://www.w3.org/2000/svg" width="23" height="14" viewBox="0 0 23 14">
  <path fill="purple" fill-rule="evenodd" d="M378.4465,123.20942 C378.730308,123.488096 379.055693,123.645071 379.460617,123.645071 C379.825771,123.645071 380.190925,123.488096 380.476541,123.20942 L390.579744,113.312894 C390.863552,113.035982 391.024436,112.718503 391.024436,112.323418 C391.024436,111.926569 390.863552,111.610854 390.579744,111.333941 L380.476541,101.435652 C380.190925,101.158739 379.825771,101 379.460617,101 C379.055693,101 378.730308,101.158739 378.4465,101.435652 C378.162692,101.712564 378,102.030043 378,102.425128 L378,122.219944 C378,122.616792 378.162692,122.932507 378.4465,123.20942" transform="rotate(90 250.512 -126.677)"/>
</svg>